# xmcd CD database file
#
# Track frame offsets:
#	150
#	13180
#	57652
#	89717
#	103520
#	121627
#	147417
#	184647
#	218127
#	240417
#	271577
#	298705
#
# Disc length: 4256 seconds
#
# Revision: 1
# Processed by: cddbd v1.4PL0 Copyright (c) Steve Scherf et al.
# Submitted via: CDex 1.50Beta7
#
DISCID=ac109e0c
DTITLE=Various Artist - Late Night Jazz - Disc 1
DYEAR=2000
DGENRE=Jazz
TTITLE0=Somewhere - The Cannonball Adderley Quintet
TTITLE1=Midnight Special - Jimmy Smith and Stanley Turrentine
TTITLE2=Round Midnight - Miles Davis
TTITLE3=Loie - Kenny Burrell
TTITLE4=God Bless The Child - Stanley Turrentine
TTITLE5=Cristo Redentor - Donald Byrd and Herbie Hancock
TTITLE6=Mood Indigo - Charles Mingus
TTITLE7=All The Way - Lee Morgan
TTITLE8=The Lady in my Life - Stanley Jordan
TTITLE9=Infant Eyes - Wayne Shorter
TTITLE10=Peace - Horace Silver
TTITLE11=Everything Must Change - David "Fathead" Newman
EXTD=YEAR: 2000
EXTT0=
EXTT1=
EXTT2=
EXTT3=
EXTT4=
EXTT5=
EXTT6=
EXTT7=
EXTT8=
EXTT9=
EXTT10=
EXTT11=
PLAYORDER=
